# xmcd
#
# Track frame offsets: 
#        150
#        25272
#        42991
#        73010
#        98901
#        107979
#        122407
#        134162
#        164288
#        183338
#
# Disc length: 2625 seconds
#
# Revision: 0
# Processed by: cddbd v1.4PL0 Copyright (c) Steve Scherf et al.
# Submitted via: ExactAudioCopy v0.90b4
#
DISCID=8c0a3f0a
DTITLE=Van Morrison - The Wolftrap Vienna, disc 2
DYEAR=1986
DGENRE=Celtic
TTITLE0=Across The Bridge Where Angels Dwell
TTITLE1=Cleaning Windows
TTITLE2=A Town Called Paradise
TTITLE3=A Sense Of Wonder
TTITLE4=Full Force Gale
TTITLE5=Bright Side Of The Road
TTITLE6=Cry For Home
TTITLE7=Summertime In England
TTITLE8=Send In The Clowns
TTITLE9=Jackie Wilson Said ...
EXTD=
EXTT0=
EXTT1=
EXTT2=
EXTT3=
EXTT4=
EXTT5=
EXTT6=
EXTT7=
EXTT8=
EXTT9=
PLAYORDER=
